<?xml version="1.0" encoding="UTF-8"?>
<!-- Svg Vector Icons : http://www.onlinewebfonts.com/icon -->
<!DOCTYPE svg PUBLIC "-//W3C//DTD SVG 1.1//EN" "http://www.w3.org/Graphics/SVG/1.1/DTD/svg11.dtd">
<svg version="1.1" xmlns="http://www.w3.org/2000/svg" xmlns:xlink="http://www.w3.org/1999/xlink" x="0px" y="0px" viewBox="0 0 1000 1000" enable-background="new 0 0 1000 1000" xml:space="preserve">
<metadata> Svg Vector Icons : http://www.onlinewebfonts.com/icon </metadata>
<g><path d="M392.5,185c-55.8,0-107.9,9.5-156.4,28.4c-48.5,19-87,44.7-115.7,77.1S77.5,357.8,77.5,395c0,29.9,9.7,58.7,29,86.4c19.3,27.7,46.5,51.8,81.5,72.2l53,30.6l-19.1,45.9c12.4-7.3,23.7-14.4,33.9-21.3l24.1-17l29,5.5c28.4,5.1,56.3,7.7,83.7,7.7c55.8,0,107.9-9.5,156.4-28.4s87-44.7,115.7-77.1c28.6-32.4,42.9-67.3,42.9-104.5s-14.3-72-42.9-104.5s-67.2-58.2-115.7-77.1S448.3,185,392.5,185z M392.5,115c69.6,0,134.1,12.5,193.3,37.5s106,59,140.3,102s51.4,89.9,51.4,140.5s-17.1,97.5-51.4,140.5c-34.3,43-81,77-140.3,102S462.2,675,392.5,675c-31.4,0-63.4-2.9-96.3-8.8c-45.2,32.1-95.9,55.4-152,70c-13.1,3.3-28.8,6.2-47,8.8h-1.6c-4,0-7.7-1.5-11.2-4.4s-5.6-6.7-6.3-11.5c-0.4-1.1-0.5-2.3-0.5-3.6s0.9-2.5,2.7-3.6s2.2-2.2,1.1-3.3l1.4-2.7l1.9-3l2.2-2.7l2.5-2.7l2.2-2.5c1.8-2.2,6-6.7,12.6-13.7s11.3-12.3,14.2-16.1s7-9.1,12.3-15.9s9.8-13.8,13.7-21.1c3.8-7.3,7.6-15.3,11.2-24.1c-45.2-26.3-80.8-58.5-106.6-96.8C22.9,479.2,10,438.4,10,395c0-50.7,17.1-97.5,51.4-140.5s81-77,140.3-102S325.4,115,395,115H392.5z M842.1,754.3c3.6,8.8,7.4,16.8,11.2,24.1s8.4,14.3,13.7,21.1s9.4,12,12.3,15.9s7.7,9.2,14.2,16.1s10.8,11.5,12.6,13.7c0.4,0.4,1.1,1.2,2.2,2.5s1.9,2.2,2.5,2.7s1.3,1.5,2.2,2.7s1.5,2.3,1.9,3l1.4,2.7l1.1,3.3l2.7,3.6l-0.5,3.6c-1.1,5.1-3.5,9.1-7.1,12s-7.7,4.2-12,3.8c-18.2-2.6-33.9-5.5-47-8.8c-56.1-14.6-106.8-37.9-152-70c-32.8,5.8-64.9,8.8-96.3,8.8c-98.8,0-184.8-24.1-258.1-72.2c21.1,1.5,37.2,2.2,48.1,2.2c58.7,0,115-8.2,169-24.6s102.1-39.9,144.4-70.5c45.6-33.5,80.6-72.2,105-115.9C837.8,490.1,850,443.8,850,395c0-28.1-4.2-55.8-12.6-83.1c47,25.9,84.2,58.3,111.6,97.3s41,80.9,41,125.8c0,43.8-12.9,84.7-38.8,122.8c-25.9,38.1-61.4,70.3-106.6,96.5H842.1z"/></g>
</svg>