<?xml version="1.0" encoding="UTF-8" standalone="no"?>
<svg
   xmlns:dc="http://purl.org/dc/elements/1.1/"
   xmlns:cc="http://creativecommons.org/ns#"
   xmlns:rdf="http://www.w3.org/1999/02/22-rdf-syntax-ns#"
   xmlns:svg="http://www.w3.org/2000/svg"
   xmlns="http://www.w3.org/2000/svg"
   width="30"
   height="30"
   viewBox="0 0 30 30"
   id="svg4185"
   version="1.1">
  <defs
     id="defs4187" />
  <metadata
     id="metadata4190">
    <rdf:RDF>
      <cc:Work
         rdf:about="">
        <dc:format>image/svg+xml</dc:format>
        <dc:type
           rdf:resource="http://purl.org/dc/dcmitype/StillImage" />
        <dc:title></dc:title>
      </cc:Work>
    </rdf:RDF>
  </metadata>
  <g
     id="layer1"
     transform="matrix(0.93684209,0,0,0.93508443,0.90977441,-955.04753)">
    <g
       transform="matrix(0.55347483,0,0,0.55451519,0.09630822,1022.4184)"
       id="g4798"
       style="fill:#e1e1e1;fill-opacity:1">
      <path
         class="st0"
         d="M 27,2 C 40.8,2 52,13.2 52,27 52,40.8 40.8,52 27,52 13.2,52 2,40.8 2,27 2,13.2 13.2,2 27,2 M 27,0 C 12.1,0 0,12.1 0,27 0,41.9 12.1,54 27,54 41.9,54 54,41.9 54,27 54,12.1 41.9,0 27,0 l 0,0 z"
         id="path4800"
         style="fill:#e1e1e1;fill-opacity:1" />
    </g>
    <g
       transform="matrix(0.55347483,0,0,0.55451519,0.09630822,1022.4184)"
       id="g4802"
       style="fill:#e1e1e1;fill-opacity:1;stroke:#e1e1e1;stroke-opacity:1">
      <line
         class="st1"
         x1="15"
         y1="19.9"
         x2="39"
         y2="19.9"
         id="line4804"
         style="fill:#e1e1e1;fill-opacity:1;stroke:#e1e1e1;stroke-width:2;stroke-miterlimit:10;stroke-opacity:1" />
      <line
         class="st1"
         x1="15"
         y1="34.900002"
         x2="39"
         y2="34.900002"
         id="line4806"
         style="fill:#e1e1e1;fill-opacity:1;stroke:#e1e1e1;stroke-width:2;stroke-miterlimit:10;stroke-opacity:1" />
      <line
         class="st1"
         x1="15"
         y1="27.4"
         x2="39"
         y2="27.4"
         id="line4808"
         style="fill:#e1e1e1;fill-opacity:1;stroke:#e1e1e1;stroke-width:2;stroke-miterlimit:10;stroke-opacity:1" />
    </g>
  </g>
</svg>
